<svg xmlns="http://www.w3.org/2000/svg" width="300" height="150" viewBox="0 0 300 150">
  <defs>
    <style>
      .cls-1 {
        fill: #ffce2f;
        fill-rule: evenodd;
      }
    </style>
  </defs>
  <g id="Artboard_1" data-name="Artboard 1">
    <path id="Color_Fill_1" data-name="Color Fill 1" class="cls-1" d="M0,143.966L0.041,141.5c10.617-10.608,34.3-.345,47.313.128,18.48,0.671,34.81-10.847,53.717-11.476,19.4-.646,35.078,10,53.446,11.969,20.413,2.185,25.488-20.356,43.028-24.4,19.517-4.5,34.572,15.541,55.486,7.656,15.843-5.974,12.208-25.006,17.3-37.835,4.283-10.792,15.248-13.243,20.311-22.729,4.184-7.838-.074-18.012.972-26.486C293.381,24,300,15.054,300,0H0V143.966L0.3,142.1,0,142.55"/>
  </g>
</svg>
